<?xml version="1.0" standalone="no"?>
<!DOCTYPE svg PUBLIC "-//W3C//DTD SVG 20010904//EN"
 "http://www.w3.org/TR/2001/REC-SVG-20010904/DTD/svg10.dtd">
<svg version="1.0" xmlns="http://www.w3.org/2000/svg"
 width="260.000000pt" height="260.000000pt" viewBox="0 0 260.000000 260.000000"
 preserveAspectRatio="xMidYMid meet">
<metadata>
Created by potrace 1.11, written by Peter Selinger 2001-2013
</metadata>
<g transform="translate(0.000000,260.000000) scale(0.100000,-0.100000)"
fill="#000000" stroke="none">
<path d="M1968 2165 c-2 -3 -22 -7 -44 -10 -21 -3 -50 -7 -64 -11 -14 -3 -31
-6 -38 -8 -8 -1 -17 -8 -21 -15 -4 -7 -12 -11 -17 -10 -5 1 -11 0 -14 -1 -3
-1 -12 -3 -20 -5 -8 -1 -33 -11 -55 -20 -22 -10 -42 -19 -45 -20 -23 -6 -134
-64 -170 -89 -25 -17 -57 -38 -72 -46 -52 -30 -124 -92 -253 -220 -84 -83 -95
-95 -95 -103 0 -4 -11 -20 -25 -35 -14 -15 -32 -34 -40 -43 -8 -9 -15 -20 -15
-25 0 -5 -11 -21 -25 -36 -14 -15 -25 -31 -25 -36 0 -4 -7 -17 -15 -27 -34
-46 -105 -155 -100 -155 3 0 0 -6 -7 -13 -10 -11 -18 -7 -48 24 -37 40 -118
76 -160 73 -62 -5 -80 -9 -80 -16 0 -4 -4 -7 -8 -5 -15 4 -76 -45 -112 -90
-19 -24 -44 -52 -54 -63 -11 -11 -16 -20 -12 -20 4 0 0 -7 -8 -16 -9 -8 -14
-20 -11 -25 4 -5 1 -9 -4 -9 -6 0 -11 -7 -11 -15 0 -8 -4 -15 -9 -15 -9 0 -27
-57 -23 -72 1 -5 -3 -8 -9 -8 -5 0 -8 -4 -5 -9 4 -5 2 -20 -3 -34 -13 -35 -21
-88 -11 -82 4 3 13 -2 20 -10 9 -11 17 -12 31 -4 10 5 19 14 19 19 0 20 44 59
89 79 46 19 131 34 131 22 0 -4 10 -7 22 -8 30 -3 78 -24 78 -34 0 -13 -113
-125 -122 -121 -4 1 -8 -4 -8 -12 0 -8 -7 -16 -15 -20 -8 -3 -15 -11 -15 -18
0 -7 -8 -18 -18 -24 -10 -6 -26 -30 -37 -53 -11 -22 -22 -41 -25 -41 -3 0 -7
-14 -8 -30 -2 -24 3 -33 23 -42 14 -6 25 -15 25 -20 0 -5 4 -6 10 -3 6 3 10 1
10 -5 0 -6 5 -8 10 -5 6 3 10 2 10 -3 0 -4 15 -15 33 -24 30 -14 36 -14 80 3
51 20 128 66 139 83 4 6 8 8 8 4 0 -3 26 18 57 48 32 30 63 54 69 54 19 0 35
-61 29 -110 -7 -56 -49 -122 -92 -145 -36 -20 -41 -36 -17 -59 11 -11 26 -14
52 -10 50 8 192 55 192 64 0 4 6 7 13 7 18 0 87 43 87 55 0 5 4 7 8 4 5 -3 28
13 51 35 24 21 47 39 50 39 15 0 55 97 54 130 -3 70 -18 104 -68 154 -14 14
-25 29 -25 34 0 4 22 18 49 30 27 12 52 26 56 32 3 6 10 8 14 5 5 -2 20 6 33
18 14 13 29 22 34 20 6 -2 21 7 34 19 14 13 27 22 30 20 3 -1 12 3 21 10 32
26 78 58 85 58 11 0 111 80 166 131 21 20 38 34 38 32 0 -3 24 19 52 48 29 30
51 54 49 54 -2 0 15 20 38 45 22 25 41 50 41 57 0 6 4 13 8 15 10 4 72 105 72
118 0 6 4 10 9 10 5 0 13 15 16 33 4 17 17 50 30 72 12 22 24 51 27 65 4 14 9
34 12 45 42 147 39 246 -9 298 -14 15 -31 28 -38 28 -7 1 -23 2 -37 3 -14 1
-30 5 -36 9 -6 3 -13 4 -16 2z"/>
</g>
</svg>
